%TF.GenerationSoftware,KiCad,Pcbnew,9.0.0*%
%TF.CreationDate,2026-06-03T06:55:47-04:00*%
%TF.ProjectId,PastureOS,50617374-7572-4654-9f53-2e6b69636164,rev?*%
%TF.SameCoordinates,Original*%
%TF.FileFunction,Legend,Top*%
%TF.FilePolarity,Positive*%
%FSLAX46Y46*%
G04 Gerber Fmt 4.6, Leading zero omitted, Abs format (unit mm)*
G04 Created by KiCad (PCBNEW 9.0.0) date 2026-06-03 06:55:47*
%MOMM*%
%LPD*%
G01*
G04 APERTURE LIST*
%ADD10C,0.150000*%
%ADD11C,0.250000*%
%ADD12C,0.500000*%
%ADD13C,0.060000*%
%ADD14C,0.300000*%
%ADD15R,1.800000X1.500000*%
%ADD16R,1.500000X1.800000*%
%ADD17R,1.800000X0.800000*%
%ADD18R,0.800000X1.800000*%
G04 APERTURE END LIST*
D10*
X148638095Y-62854819D02*
X148638095Y-63664342D01*
X148638095Y-63664342D02*
X148685714Y-63759580D01*
X148685714Y-63759580D02*
X148733333Y-63807200D01*
X148733333Y-63807200D02*
X148828571Y-63854819D01*
X148828571Y-63854819D02*
X149019047Y-63854819D01*
X149019047Y-63854819D02*
X149114285Y-63807200D01*
X149114285Y-63807200D02*
X149161904Y-63759580D01*
X149161904Y-63759580D02*
X149209523Y-63664342D01*
X149209523Y-63664342D02*
X149209523Y-62854819D01*
X149638095Y-62950057D02*
X149685714Y-62902438D01*
X149685714Y-62902438D02*
X149780952Y-62854819D01*
X149780952Y-62854819D02*
X150019047Y-62854819D01*
X150019047Y-62854819D02*
X150114285Y-62902438D01*
X150114285Y-62902438D02*
X150161904Y-62950057D01*
X150161904Y-62950057D02*
X150209523Y-63045295D01*
X150209523Y-63045295D02*
X150209523Y-63140533D01*
X150209523Y-63140533D02*
X150161904Y-63283390D01*
X150161904Y-63283390D02*
X149590476Y-63854819D01*
X149590476Y-63854819D02*
X150209523Y-63854819D01*
X127638095Y-60940819D02*
X127638095Y-61750342D01*
X127638095Y-61750342D02*
X127685714Y-61845580D01*
X127685714Y-61845580D02*
X127733333Y-61893200D01*
X127733333Y-61893200D02*
X127828571Y-61940819D01*
X127828571Y-61940819D02*
X128019047Y-61940819D01*
X128019047Y-61940819D02*
X128114285Y-61893200D01*
X128114285Y-61893200D02*
X128161904Y-61845580D01*
X128161904Y-61845580D02*
X128209523Y-61750342D01*
X128209523Y-61750342D02*
X128209523Y-60940819D01*
X129209523Y-61940819D02*
X128638095Y-61940819D01*
X128923809Y-61940819D02*
X128923809Y-60940819D01*
X128923809Y-60940819D02*
X128828571Y-61083676D01*
X128828571Y-61083676D02*
X128733333Y-61178914D01*
X128733333Y-61178914D02*
X128638095Y-61226533D01*
D11*
%TO.C,U2*%
X141650000Y-66250000D02*
X141650000Y-81750000D01*
X141650000Y-81750000D02*
X157150000Y-81750000D01*
X157150000Y-66250000D02*
X141650000Y-66250000D01*
X157150000Y-81750000D02*
X157150000Y-66250000D01*
D12*
X141150000Y-70200000D02*
G75*
G02*
X140650000Y-70200000I-250000J0D01*
G01*
X140650000Y-70200000D02*
G75*
G02*
X141150000Y-70200000I250000J0D01*
G01*
D13*
X141680000Y-66250000D02*
G75*
G02*
X141620000Y-66250000I-30000J0D01*
G01*
X141620000Y-66250000D02*
G75*
G02*
X141680000Y-66250000I30000J0D01*
G01*
D11*
%TO.C,U1*%
X120890000Y-65275000D02*
X120890000Y-66745000D01*
X120890000Y-79005000D02*
X120890000Y-80875000D01*
X120890000Y-80875000D02*
X128270000Y-80875000D01*
X122400000Y-67055000D02*
X134400000Y-67055000D01*
X122400000Y-68055000D02*
X122400000Y-67055000D01*
X122400000Y-76055000D02*
X122400000Y-68055000D01*
X122400000Y-77055000D02*
X124400000Y-77055000D01*
X122400000Y-79055000D02*
X122400000Y-77055000D01*
X124270000Y-65275000D02*
X120890000Y-65275000D01*
X124400000Y-77055000D02*
X124400000Y-79055000D01*
X124400000Y-79055000D02*
X122400000Y-79055000D01*
X125400000Y-76055000D02*
X122400000Y-76055000D01*
X125400000Y-79055000D02*
X125400000Y-76055000D01*
X132530000Y-80875000D02*
X135890000Y-80875000D01*
X134400000Y-67055000D02*
X134400000Y-79055000D01*
X134400000Y-79055000D02*
X125400000Y-79055000D01*
X135890000Y-65275000D02*
X132530000Y-65275000D01*
X135890000Y-66745000D02*
X135890000Y-65275000D01*
X135890000Y-75745000D02*
X135890000Y-72005000D01*
X135890000Y-80875000D02*
X135890000Y-79005000D01*
D14*
X119650000Y-67405000D02*
G75*
G02*
X119350000Y-67405000I-150000J0D01*
G01*
X119350000Y-67405000D02*
G75*
G02*
X119650000Y-67405000I150000J0D01*
G01*
D13*
X120930000Y-65295000D02*
G75*
G02*
X120870000Y-65295000I-30000J0D01*
G01*
X120870000Y-65295000D02*
G75*
G02*
X120930000Y-65295000I30000J0D01*
G01*
%TD*%
%LPC*%
D15*
%TO.C,U2*%
X142800000Y-70200000D03*
X142800000Y-72100000D03*
X142800000Y-74000000D03*
X142800000Y-75900000D03*
X142800000Y-77800000D03*
D16*
X145600000Y-80600000D03*
X147500000Y-80600000D03*
X149400000Y-80600000D03*
X151300000Y-80600000D03*
X153200000Y-80600000D03*
D15*
X156000000Y-77800000D03*
X156000000Y-75900000D03*
X156000000Y-74000000D03*
X156000000Y-72100000D03*
X156000000Y-70200000D03*
D16*
X153200000Y-67400000D03*
X151300000Y-67400000D03*
X149400000Y-67400000D03*
X147500000Y-67400000D03*
X145600000Y-67400000D03*
%TD*%
D17*
%TO.C,U1*%
X121110000Y-67375000D03*
X121110000Y-68375000D03*
X121110000Y-69375000D03*
X121110000Y-70375000D03*
X121110000Y-71375000D03*
X121110000Y-72375000D03*
X121110000Y-73375000D03*
X121110000Y-74375000D03*
X121110000Y-75375000D03*
X121110000Y-76375000D03*
X121110000Y-77375000D03*
X121110000Y-78375000D03*
D18*
X128900000Y-80625000D03*
X129900000Y-80625000D03*
X130900000Y-80625000D03*
X131900000Y-80625000D03*
D17*
X135690000Y-78375000D03*
X135690000Y-77375000D03*
X135690000Y-76375000D03*
X135690000Y-71375000D03*
X135690000Y-70375000D03*
X135690000Y-69375000D03*
X135690000Y-68375000D03*
X135690000Y-67375000D03*
D18*
X131900000Y-65485000D03*
X130900000Y-65485000D03*
X129900000Y-65485000D03*
X128900000Y-65485000D03*
X127900000Y-65485000D03*
X126900000Y-65485000D03*
X125900000Y-65485000D03*
X124900000Y-65485000D03*
%TD*%
%LPD*%
M02*
