%TF.GenerationSoftware,KiCad,Pcbnew,9.0.0*%
%TF.CreationDate,2026-06-03T06:55:47-04:00*%
%TF.ProjectId,PastureOS,50617374-7572-4654-9f53-2e6b69636164,rev?*%
%TF.SameCoordinates,Original*%
%TF.FileFunction,Soldermask,Top*%
%TF.FilePolarity,Negative*%
%FSLAX46Y46*%
G04 Gerber Fmt 4.6, Leading zero omitted, Abs format (unit mm)*
G04 Created by KiCad (PCBNEW 9.0.0) date 2026-06-03 06:55:47*
%MOMM*%
%LPD*%
G01*
G04 APERTURE LIST*
%ADD10R,1.800000X1.500000*%
%ADD11R,1.500000X1.800000*%
%ADD12R,1.800000X0.800000*%
%ADD13R,0.800000X1.800000*%
G04 APERTURE END LIST*
D10*
%TO.C,U2*%
X142800000Y-70200000D03*
X142800000Y-72100000D03*
X142800000Y-74000000D03*
X142800000Y-75900000D03*
X142800000Y-77800000D03*
D11*
X145600000Y-80600000D03*
X147500000Y-80600000D03*
X149400000Y-80600000D03*
X151300000Y-80600000D03*
X153200000Y-80600000D03*
D10*
X156000000Y-77800000D03*
X156000000Y-75900000D03*
X156000000Y-74000000D03*
X156000000Y-72100000D03*
X156000000Y-70200000D03*
D11*
X153200000Y-67400000D03*
X151300000Y-67400000D03*
X149400000Y-67400000D03*
X147500000Y-67400000D03*
X145600000Y-67400000D03*
%TD*%
D12*
%TO.C,U1*%
X121110000Y-67375000D03*
X121110000Y-68375000D03*
X121110000Y-69375000D03*
X121110000Y-70375000D03*
X121110000Y-71375000D03*
X121110000Y-72375000D03*
X121110000Y-73375000D03*
X121110000Y-74375000D03*
X121110000Y-75375000D03*
X121110000Y-76375000D03*
X121110000Y-77375000D03*
X121110000Y-78375000D03*
D13*
X128900000Y-80625000D03*
X129900000Y-80625000D03*
X130900000Y-80625000D03*
X131900000Y-80625000D03*
D12*
X135690000Y-78375000D03*
X135690000Y-77375000D03*
X135690000Y-76375000D03*
X135690000Y-71375000D03*
X135690000Y-70375000D03*
X135690000Y-69375000D03*
X135690000Y-68375000D03*
X135690000Y-67375000D03*
D13*
X131900000Y-65485000D03*
X130900000Y-65485000D03*
X129900000Y-65485000D03*
X128900000Y-65485000D03*
X127900000Y-65485000D03*
X126900000Y-65485000D03*
X125900000Y-65485000D03*
X124900000Y-65485000D03*
%TD*%
M02*
