%TF.GenerationSoftware,KiCad,Pcbnew,9.0.0*%
%TF.CreationDate,2026-06-03T06:55:47-04:00*%
%TF.ProjectId,PastureOS,50617374-7572-4654-9f53-2e6b69636164,rev?*%
%TF.SameCoordinates,Original*%
%TF.FileFunction,Copper,L1,Top*%
%TF.FilePolarity,Positive*%
%FSLAX46Y46*%
G04 Gerber Fmt 4.6, Leading zero omitted, Abs format (unit mm)*
G04 Created by KiCad (PCBNEW 9.0.0) date 2026-06-03 06:55:47*
%MOMM*%
%LPD*%
G01*
G04 APERTURE LIST*
%TA.AperFunction,SMDPad,CuDef*%
%ADD10R,1.800000X1.500000*%
%TD*%
%TA.AperFunction,SMDPad,CuDef*%
%ADD11R,1.500000X1.800000*%
%TD*%
%TA.AperFunction,SMDPad,CuDef*%
%ADD12R,1.800000X0.800000*%
%TD*%
%TA.AperFunction,SMDPad,CuDef*%
%ADD13R,0.800000X1.800000*%
%TD*%
G04 APERTURE END LIST*
D10*
%TO.P,U2,1,GND*%
%TO.N,unconnected-(U2-GND-Pad1)*%
X142800000Y-70200000D03*
%TO.P,U2,2,V_IO*%
%TO.N,unconnected-(U2-V_IO-Pad2)*%
X142800000Y-72100000D03*
%TO.P,U2,3,V_BCKP*%
%TO.N,unconnected-(U2-V_BCKP-Pad3)*%
X142800000Y-74000000D03*
%TO.P,U2,4,GND*%
%TO.N,unconnected-(U2-GND-Pad4)*%
X142800000Y-75900000D03*
%TO.P,U2,5,GND*%
%TO.N,unconnected-(U2-GND-Pad5)*%
X142800000Y-77800000D03*
D11*
%TO.P,U2,6,GND*%
%TO.N,unconnected-(U2-GND-Pad6)*%
X145600000Y-80600000D03*
%TO.P,U2,7,TIMEPULSE*%
%TO.N,unconnected-(U2-TIMEPULSE-Pad7)*%
X147500000Y-80600000D03*
%TO.P,U2,8,SAFEBOOT_N*%
%TO.N,unconnected-(U2-SAFEBOOT_N-Pad8)*%
X149400000Y-80600000D03*
%TO.P,U2,9,SDA*%
%TO.N,unconnected-(U2-SDA-Pad9)*%
X151300000Y-80600000D03*
%TO.P,U2,10,GND*%
%TO.N,unconnected-(U2-GND-Pad10)*%
X153200000Y-80600000D03*
D10*
%TO.P,U2,11,GND*%
%TO.N,unconnected-(U2-GND-Pad11)*%
X156000000Y-77800000D03*
%TO.P,U2,12,SCL*%
%TO.N,unconnected-(U2-SCL-Pad12)*%
X156000000Y-75900000D03*
%TO.P,U2,13,TXD*%
%TO.N,unconnected-(U2-TXD-Pad13)*%
X156000000Y-74000000D03*
%TO.P,U2,14,RXD*%
%TO.N,unconnected-(U2-RXD-Pad14)*%
X156000000Y-72100000D03*
%TO.P,U2,15,GND*%
%TO.N,unconnected-(U2-GND-Pad15)*%
X156000000Y-70200000D03*
D11*
%TO.P,U2,16,GND*%
%TO.N,unconnected-(U2-GND-Pad16)*%
X153200000Y-67400000D03*
%TO.P,U2,17,VCC*%
%TO.N,unconnected-(U2-VCC-Pad17)*%
X151300000Y-67400000D03*
%TO.P,U2,18,RESET_N*%
%TO.N,unconnected-(U2-RESET_N-Pad18)*%
X149400000Y-67400000D03*
%TO.P,U2,19,EXTINT*%
%TO.N,unconnected-(U2-EXTINT-Pad19)*%
X147500000Y-67400000D03*
%TO.P,U2,20,GND*%
%TO.N,unconnected-(U2-GND-Pad20)*%
X145600000Y-67400000D03*
%TD*%
D12*
%TO.P,U1,1,PA3/UART2_RX*%
%TO.N,unconnected-(U1-PA3{slash}UART2_RX-Pad1)*%
X121110000Y-67375000D03*
%TO.P,U1,2,PA2/UART2_TX*%
%TO.N,unconnected-(U1-PA2{slash}UART2_TX-Pad2)*%
X121110000Y-68375000D03*
%TO.P,U1,3,PA15/PIN_A4*%
%TO.N,unconnected-(U1-PA15{slash}PIN_A4-Pad3)*%
X121110000Y-69375000D03*
%TO.P,U1,4,PB6/UART1_TX*%
%TO.N,unconnected-(U1-PB6{slash}UART1_TX-Pad4)*%
X121110000Y-70375000D03*
%TO.P,U1,5,PB7/UART1_RX*%
%TO.N,unconnected-(U1-PB7{slash}UART1_RX-Pad5)*%
X121110000Y-71375000D03*
%TO.P,U1,6,PA1*%
%TO.N,unconnected-(U1-PA1-Pad6)*%
X121110000Y-72375000D03*
%TO.P,U1,7,PA13/SWDIO*%
%TO.N,unconnected-(U1-PA13{slash}SWDIO-Pad7)*%
X121110000Y-73375000D03*
%TO.P,U1,8,PA14/SWCLK*%
%TO.N,unconnected-(U1-PA14{slash}SWCLK-Pad8)*%
X121110000Y-74375000D03*
%TO.P,U1,9,PA12/I2C_SCL*%
%TO.N,unconnected-(U1-PA12{slash}I2C_SCL-Pad9)*%
X121110000Y-75375000D03*
%TO.P,U1,10,PA11/I2C_SDA*%
%TO.N,unconnected-(U1-PA11{slash}I2C_SDA-Pad10)*%
X121110000Y-76375000D03*
%TO.P,U1,11,GND*%
%TO.N,unconnected-(U1-GND-Pad11)*%
X121110000Y-77375000D03*
%TO.P,U1,12,RF*%
%TO.N,unconnected-(U1-RF-Pad12)*%
X121110000Y-78375000D03*
D13*
%TO.P,U1,13,PA7/SPI1_MOSI*%
%TO.N,unconnected-(U1-PA7{slash}SPI1_MOSI-Pad13)*%
X128900000Y-80625000D03*
%TO.P,U1,14,PA6/SPI1_MISO*%
%TO.N,unconnected-(U1-PA6{slash}SPI1_MISO-Pad14)*%
X129900000Y-80625000D03*
%TO.P,U1,15,PA5/SPI1_CLK*%
%TO.N,unconnected-(U1-PA5{slash}SPI1_CLK-Pad15)*%
X130900000Y-80625000D03*
%TO.P,U1,16,PA4/SPI1_NSS*%
%TO.N,unconnected-(U1-PA4{slash}SPI1_NSS-Pad16)*%
X131900000Y-80625000D03*
D12*
%TO.P,U1,17,GND*%
%TO.N,unconnected-(U1-GND-Pad17)*%
X135690000Y-78375000D03*
%TO.P,U1,18,GND*%
%TO.N,unconnected-(U1-GND-Pad18)*%
X135690000Y-77375000D03*
%TO.P,U1,19,PA8*%
%TO.N,unconnected-(U1-PA8-Pad19)*%
X135690000Y-76375000D03*
%TO.P,U1,20,PA9*%
%TO.N,unconnected-(U1-PA9-Pad20)*%
X135690000Y-71375000D03*
%TO.P,U1,21,BOOT0*%
%TO.N,unconnected-(U1-BOOT0-Pad21)*%
X135690000Y-70375000D03*
%TO.P,U1,22,RST*%
%TO.N,unconnected-(U1-RST-Pad22)*%
X135690000Y-69375000D03*
%TO.P,U1,23,GND*%
%TO.N,unconnected-(U1-GND-Pad23)*%
X135690000Y-68375000D03*
%TO.P,U1,24,VDD*%
%TO.N,unconnected-(U1-VDD-Pad24)*%
X135690000Y-67375000D03*
D13*
%TO.P,U1,25,PA10/PIN_A3*%
%TO.N,unconnected-(U1-PA10{slash}PIN_A3-Pad25)*%
X131900000Y-65485000D03*
%TO.P,U1,26,PB2/PIN_A2*%
%TO.N,unconnected-(U1-PB2{slash}PIN_A2-Pad26)*%
X130900000Y-65485000D03*
%TO.P,U1,27,PB12*%
%TO.N,unconnected-(U1-PB12-Pad27)*%
X129900000Y-65485000D03*
%TO.P,U1,28,GND*%
%TO.N,unconnected-(U1-GND-Pad28)*%
X128900000Y-65485000D03*
%TO.P,U1,29,PA0*%
%TO.N,unconnected-(U1-PA0-Pad29)*%
X127900000Y-65485000D03*
%TO.P,U1,30,PB5*%
%TO.N,unconnected-(U1-PB5-Pad30)*%
X126900000Y-65485000D03*
%TO.P,U1,31,PB4/PIN_A1*%
%TO.N,unconnected-(U1-PB4{slash}PIN_A1-Pad31)*%
X125900000Y-65485000D03*
%TO.P,U1,32,PB3/PIN_A0*%
%TO.N,unconnected-(U1-PB3{slash}PIN_A0-Pad32)*%
X124900000Y-65485000D03*
%TD*%
M02*
